<svg xmlns="http://www.w3.org/2000/svg" width="32" height="32">
  <path d="M16 .2c4.4 0 8.1 1.6 11.2 4.6 3 3 4.6 6.8 4.6 11.2 0 4.4-1.5 8.1-4.5 11-3.2 3.2-7 4.8-11.3 4.8-4.3 0-8-1.6-11.1-4.7C1.8 24.1.2 20.3.2 16S1.8 8 5 4.8c3-3 6.7-4.6 11-4.6zm0 2.9c-3.6 0-6.6 1.2-9 3.8A12.7 12.7 0 0 0 7 25a12.6 12.6 0 0 0 18.3 0 12 12 0 0 0 3.6-9.1c0-3.6-1.2-6.6-3.8-9.1a12.4 12.4 0 0 0-9-3.8zm4.2 9v6.4h-1.8v7.7h-4.8v-7.7h-1.8v-6.4c0-.3 0-.5.2-.7a1 1 0 0 1 .8-.3h6.4a1 1 0 0 1 .7.3c.2.2.3.4.3.7zm-6.4-4c0-1.5.7-2.3 2.2-2.3s2.2.8 2.2 2.2c0 1.5-.7 2.2-2.2 2.2s-2.2-.7-2.2-2.2z"/>
</svg>
