<?xml version="1.0" encoding="UTF-8" standalone="no"?>
<svg
   xmlns:dc="http://purl.org/dc/elements/1.1/"
   xmlns:cc="http://creativecommons.org/ns#"
   xmlns:rdf="http://www.w3.org/1999/02/22-rdf-syntax-ns#"
   xmlns:svg="http://www.w3.org/2000/svg"
   xmlns="http://www.w3.org/2000/svg"
   xmlns:sodipodi="http://sodipodi.sourceforge.net/DTD/sodipodi-0.dtd"
   xmlns:inkscape="http://www.inkscape.org/namespaces/inkscape"
   width="377"
   height="295"
   viewBox="0 0 377 295"
   version="1.1"
   id="svg148"
   sodipodi:docname="icon-home-hero.svg"
   inkscape:version="0.92.4 (5da689c313, 2019-01-14)">
  <metadata
     id="metadata154">
    <rdf:RDF>
      <cc:Work
         rdf:about="">
        <dc:format>image/svg+xml</dc:format>
        <dc:type
           rdf:resource="http://purl.org/dc/dcmitype/StillImage" />
      </cc:Work>
    </rdf:RDF>
  </metadata>
  <defs
     id="defs152" />
  <sodipodi:namedview
     pagecolor="#ffffff"
     bordercolor="#666666"
     borderopacity="1"
     objecttolerance="10"
     gridtolerance="10"
     guidetolerance="10"
     inkscape:pageopacity="0"
     inkscape:pageshadow="2"
     inkscape:window-width="1412"
     inkscape:window-height="852"
     id="namedview150"
     showgrid="false"
     inkscape:zoom="0.8"
     inkscape:cx="188.5"
     inkscape:cy="147.5"
     inkscape:window-x="70"
     inkscape:window-y="0"
     inkscape:window-maximized="0"
     inkscape:current-layer="svg148" />
  <g
     id="g146"
     style="fill:none;fill-rule:evenodd">
    <path
       d="M 0,0 H 377 V 295 H 0 Z"
       id="path2"
       inkscape:connector-curvature="0"
       style="fill:#23cba5" />
    <g
       transform="translate(229)"
       id="g38">
      <path
         style="fill:#ffffff;fill-rule:nonzero"
         d="m 4,0 h 140 c 2.216,0 4,1.784 4,4 v 187 c 0,2.216 -1.784,4 -4,4 H 4 c -2.216,0 -4,-1.784 -4,-4 V 4 C 0,1.784 1.784,0 4,0 Z"
         id="rect4"
         inkscape:connector-curvature="0" />
      <g
         transform="translate(20,26)"
         id="g12"
         style="fill-rule:nonzero">
        <path
           d="M 6.096,13.919 C 5.268,13.129 3.929,11.68 3.038,10.759 2.146,9.904 1.573,10.627 0.489,11.812 c -1.21,1.251 0,1.909 1.72,3.686 l 3.122,3.226 c 1.147,1.053 2.103,-0.527 3.632,-2.04 l 6.243,-6.517 c 1.975,-1.975 2.42,-1.975 0.828,-3.555 -1.401,-1.514 -1.338,-1.514 -3.568,0.855 -1.019,0.988 -6.051,6.254 -6.37,6.452 z"
           id="path6"
           inkscape:connector-curvature="0"
           style="fill:#23cba5" />
        <path
           style="fill:#333333"
           d="m 37.12,0 h 68.669 C 107.0139,0 108,0.985883 108,2.2105 108,3.435117 107.0139,4.421 105.789,4.421 H 37.12 C 35.895106,4.421 34.909,3.435117 34.909,2.2105 34.909,0.985883 35.895106,0 37.12,0 Z"
           id="rect8"
           inkscape:connector-curvature="0" />
        <path
           style="fill:#333333"
           d="m 37.12,14.368 h 55.578 c 1.224894,0 2.211,0.985883 2.211,2.2105 0,1.224617 -0.986106,2.2105 -2.211,2.2105 H 37.12 c -1.224894,0 -2.211,-0.985883 -2.211,-2.2105 0,-1.224617 0.986106,-2.2105 2.211,-2.2105 z"
           id="rect10"
           inkscape:connector-curvature="0" />
      </g>
      <g
         transform="translate(20,65)"
         id="g20"
         style="fill-rule:nonzero">
        <path
           d="M 6.096,13.919 C 5.268,13.129 3.929,11.68 3.038,10.759 2.146,9.904 1.573,10.627 0.489,11.812 c -1.21,1.251 0,1.909 1.72,3.686 l 3.122,3.226 c 1.147,1.053 2.103,-0.527 3.632,-2.04 l 6.243,-6.517 c 1.975,-1.975 2.42,-1.975 0.828,-3.555 -1.401,-1.514 -1.338,-1.514 -3.568,0.855 -1.019,0.988 -6.051,6.254 -6.37,6.452 z"
           id="path14"
           inkscape:connector-curvature="0"
           style="fill:#23cba5" />
        <path
           style="fill:#333333"
           d="m 37.12,0 h 68.669 C 107.0139,0 108,0.985883 108,2.2105 108,3.435117 107.0139,4.421 105.789,4.421 H 37.12 C 35.895106,4.421 34.909,3.435117 34.909,2.2105 34.909,0.985883 35.895106,0 37.12,0 Z"
           id="rect16"
           inkscape:connector-curvature="0" />
        <path
           style="fill:#333333"
           d="m 37.12,16.579 h 55.578 c 1.224894,0 2.211,0.985883 2.211,2.2105 C 94.909,20.014117 93.922894,21 92.698,21 H 37.12 c -1.224894,0 -2.211,-0.985883 -2.211,-2.2105 0,-1.224617 0.986106,-2.2105 2.211,-2.2105 z"
           id="rect18"
           inkscape:connector-curvature="0" />
      </g>
      <g
         transform="translate(20,145)"
         id="g28"
         style="fill-rule:nonzero">
        <path
           d="M 6.096,13.919 C 5.268,13.129 3.929,11.68 3.038,10.759 2.146,9.904 1.573,10.627 0.489,11.812 c -1.21,1.251 0,1.909 1.72,3.686 l 3.122,3.226 c 1.147,1.053 2.103,-0.527 3.632,-2.04 l 6.243,-6.517 c 1.975,-1.975 2.42,-1.975 0.828,-3.555 -1.401,-1.514 -1.338,-1.514 -3.568,0.855 -1.019,0.988 -6.051,6.254 -6.37,6.452 z"
           id="path22"
           inkscape:connector-curvature="0"
           style="fill:#23cba5" />
        <path
           style="fill:#333333"
           d="m 37.12,0 h 68.669 C 107.0139,0 108,0.985883 108,2.2105 108,3.435117 107.0139,4.421 105.789,4.421 H 37.12 C 35.895106,4.421 34.909,3.435117 34.909,2.2105 34.909,0.985883 35.895106,0 37.12,0 Z"
           id="rect24"
           inkscape:connector-curvature="0" />
        <path
           style="fill:#333333"
           d="m 37.12,14.368 h 55.578 c 1.224894,0 2.211,0.985883 2.211,2.2105 0,1.224617 -0.986106,2.2105 -2.211,2.2105 H 37.12 c -1.224894,0 -2.211,-0.985883 -2.211,-2.2105 0,-1.224617 0.986106,-2.2105 2.211,-2.2105 z"
           id="rect26"
           inkscape:connector-curvature="0" />
      </g>
      <g
         transform="translate(20,106)"
         id="g36">
        <path
           d="M 6.997,12.316 2.387,7.434 a 1,1 0 0 1 0,-1.373 L 2.514,5.926 a 1,1 0 0 1 1.454,0 L 8.5,10.725 13.032,5.926 a 1,1 0 0 1 1.454,0 l 0.127,0.135 a 1,1 0 0 1 0,1.373 l -4.61,4.882 4.61,4.882 a 1,1 0 0 1 0,1.373 l -0.127,0.134 a 1,1 0 0 1 -1.454,0 L 8.5,13.907 3.968,18.705 a 1,1 0 0 1 -1.454,0 L 2.387,18.571 a 1,1 0 0 1 0,-1.373 z"
           id="path30"
           inkscape:connector-curvature="0"
           style="fill:#b10e1e;fill-rule:nonzero" />
        <path
           style="fill:#333333;fill-rule:nonzero"
           d="m 37.12,0 h 68.669 C 107.0139,0 108,0.985883 108,2.2105 108,3.435117 107.0139,4.421 105.789,4.421 H 37.12 C 35.895106,4.421 34.909,3.435117 34.909,2.2105 34.909,0.985883 35.895106,0 37.12,0 Z"
           id="rect32"
           inkscape:connector-curvature="0" />
        <path
           style="fill:#333333;fill-rule:nonzero"
           d="m 37.12,14.368 h 55.578 c 1.224894,0 2.211,0.985883 2.211,2.2105 0,1.224617 -0.986106,2.2105 -2.211,2.2105 H 37.12 c -1.224894,0 -2.211,-0.985883 -2.211,-2.2105 0,-1.224617 0.986106,-2.2105 2.211,-2.2105 z"
           id="rect34"
           inkscape:connector-curvature="0" />
      </g>
    </g>
    <g
       id="g98"
       style="fill-rule:nonzero">
      <path
         d="m 12,0 h 183 c 6.627,0 12,5.373 12,12 v 3 H 0 V 12 C 0,5.373 5.373,0 12,0 Z"
         id="path40"
         inkscape:connector-curvature="0"
         style="fill:#595959" />
      <path
         d="M 0,15 H 207 V 195 H 0 Z"
         id="path42"
         inkscape:connector-curvature="0"
         style="fill:#d3d3d3" />
      <g
         transform="translate(10,21)"
         id="g56">
        <path
           d="M 4.8,0 H 184.2 A 4.8,4.8 0 0 1 189,4.8 V 17.2 A 4.8,4.8 0 0 1 184.2,22 H 4.8 A 4.8,4.8 0 0 1 0,17.2 V 4.8 A 4.8,4.8 0 0 1 4.8,0 Z"
           id="path44"
           inkscape:connector-curvature="0"
           style="fill:#ffffff" />
        <path
           style="fill:#333333"
           d="m 44,9 h 20 c 1.108,0 2,0.892 2,2 0,1.108 -0.892,2 -2,2 H 44 c -1.108,0 -2,-0.892 -2,-2 0,-1.108 0.892,-2 2,-2 z"
           id="rect46"
           inkscape:connector-curvature="0" />
        <path
           style="fill:#333333"
           d="m 96,9 h 21 c 1.108,0 2,0.892 2,2 0,1.108 -0.892,2 -2,2 H 96 c -1.108,0 -2,-0.892 -2,-2 0,-1.108 0.892,-2 2,-2 z"
           id="rect48"
           inkscape:connector-curvature="0" />
        <path
           style="fill:#333333"
           d="m 125,9 h 20 c 1.108,0 2,0.892 2,2 0,1.108 -0.892,2 -2,2 h -20 c -1.108,0 -2,-0.892 -2,-2 0,-1.108 0.892,-2 2,-2 z"
           id="rect50"
           inkscape:connector-curvature="0" />
        <path
           style="fill:#333333"
           d="m 72,9 h 16 c 1.108,0 2,0.892 2,2 0,1.108 -0.892,2 -2,2 H 72 c -1.108,0 -2,-0.892 -2,-2 0,-1.108 0.892,-2 2,-2 z"
           id="rect52"
           inkscape:connector-curvature="0" />
        <path
           d="M 10,6 H 30 V 16 H 10 Z"
           id="path54"
           inkscape:connector-curvature="0"
           style="fill:#23cba5" />
      </g>
      <path
         d="m 63.8,52 h 94.4 a 4.8,4.8 0 0 1 4.8,4.8 v 121.4 a 4.8,4.8 0 0 1 -4.8,4.8 H 63.8 A 4.8,4.8 0 0 1 59,178.2 V 56.8 A 4.8,4.8 0 0 1 63.8,52 Z"
         id="path58"
         inkscape:connector-curvature="0"
         style="fill:#ffffff" />
      <g
         transform="translate(75,62)"
         id="g82">
        <path
           style="fill:#23cba5"
           d="M 11.968,5.9780002 A 5.9840002,5.9780002 0 0 1 5.9840002,11.956 5.9840002,5.9780002 0 0 1 0,5.9780002 5.9840002,5.9780002 0 0 1 5.9840002,0 5.9840002,5.9780002 0 0 1 11.968,5.9780002 Z"
           id="ellipse60"
           inkscape:connector-curvature="0" />
        <path
           style="fill:#d3d3d3"
           d="M 11.968,27.5 A 5.9840002,5.9780002 0 0 1 5.9840002,33.478 5.9840002,5.9780002 0 0 1 0,27.5 5.9840002,5.9780002 0 0 1 5.9840002,21.522 5.9840002,5.9780002 0 0 1 11.968,27.5 Z"
           id="ellipse62"
           inkscape:connector-curvature="0" />
        <path
           style="fill:#333333"
           d="M 21.148001,3.5869999 H 57.837 c 1.108,0 2,0.892 2,2 0,1.108 -0.892,2 -2,2 H 21.148001 c -1.108,0 -2,-0.892 -2,-2 0,-1.108 0.892,-2 2,-2 z"
           id="rect64"
           inkscape:connector-curvature="0" />
        <path
           style="fill:#333333"
           d="M 21.148001,25.108999 H 50.656 c 1.108,0 2,0.892 2,2 0,1.108 -0.892,2 -2,2 H 21.148001 c -1.108,0 -2,-0.892 -2,-2 0,-1.108 0.892,-2 2,-2 z"
           id="rect66"
           inkscape:connector-curvature="0" />
        <g
           id="g78">
          <g
             transform="translate(0,47.826)"
             id="g76">
            <path
               style="fill:#23cba5"
               d="M 11.968,5.9780002 A 5.9840002,5.9780002 0 0 1 5.9840002,11.956 5.9840002,5.9780002 0 0 1 0,5.9780002 5.9840002,5.9780002 0 0 1 5.9840002,0 5.9840002,5.9780002 0 0 1 11.968,5.9780002 Z"
               id="ellipse68"
               inkscape:connector-curvature="0" />
            <path
               style="fill:#d3d3d3"
               d="M 11.968,27.5 A 5.9840002,5.9780002 0 0 1 5.9840002,33.478 5.9840002,5.9780002 0 0 1 0,27.5 5.9840002,5.9780002 0 0 1 5.9840002,21.522 5.9840002,5.9780002 0 0 1 11.968,27.5 Z"
               id="ellipse70"
               inkscape:connector-curvature="0" />
            <path
               style="fill:#333333"
               d="m 21.148001,3.5869999 h 49.852001 c 1.108,0 2,0.892 2,2 0,1.108 -0.892,2 -2,2 H 21.148001 c -1.108,0 -2,-0.892 -2,-2 0,-1.108 0.892,-2 2,-2 z"
               id="rect72"
               inkscape:connector-curvature="0" />
            <path
               style="fill:#333333"
               d="m 21.148001,25.108999 h 37.884998 c 1.108,0 2,0.892 2,2 0,1.108 -0.892,2 -2,2 H 21.148001 c -1.108,0 -2,-0.892 -2,-2 0,-1.108 0.892,-2 2,-2 z"
               id="rect74"
               inkscape:connector-curvature="0" />
          </g>
        </g>
        <path
           style="fill:#24a882"
           d="M 2.4000001,95.652 H 34.697999 c 1.329601,0 2.400001,1.0704 2.400001,2.400001 V 107.6 c 0,1.3296 -1.0704,2.4 -2.400001,2.4 H 2.4000001 C 1.0704,110 0,108.9296 0,107.6 V 98.052001 C 0,96.7224 1.0704,95.652 2.4000001,95.652 Z"
           id="rect80"
           inkscape:connector-curvature="0" />
      </g>
      <g
         transform="translate(9,52)"
         id="g96">
        <path
           d="M 4.8,0 H 33.2 A 4.8,4.8 0 0 1 38,4.8 V 61.2 A 4.8,4.8 0 0 1 33.2,66 H 4.8 A 4.8,4.8 0 0 1 0,61.2 V 4.8 A 4.8,4.8 0 0 1 4.8,0 Z"
           id="path84"
           inkscape:connector-curvature="0"
           style="fill:#ffffff" />
        <path
           style="fill:#005dbb"
           d="m 7,7 h 24 c 1.108,0 2,0.892 2,2 0,1.108 -0.892,2 -2,2 H 7 C 5.892,11 5,10.108 5,9 5,7.892 5.892,7 7,7 Z"
           id="rect86"
           inkscape:connector-curvature="0" />
        <path
           style="fill:#005dbb"
           d="m 7,17 h 20 c 1.108,0 2,0.892 2,2 0,1.108 -0.892,2 -2,2 H 7 C 5.892,21 5,20.108 5,19 5,17.892 5.892,17 7,17 Z"
           id="rect88"
           inkscape:connector-curvature="0" />
        <path
           style="fill:#005dbb"
           d="m 7,27 h 23 c 1.108,0 2,0.892 2,2 0,1.108 -0.892,2 -2,2 H 7 C 5.892,31 5,30.108 5,29 5,27.892 5.892,27 7,27 Z"
           id="rect90"
           inkscape:connector-curvature="0" />
        <path
           style="fill:#005dbb"
           d="m 7,37 h 24 c 1.108,0 2,0.892 2,2 0,1.108 -0.892,2 -2,2 H 7 C 5.892,41 5,40.108 5,39 5,37.892 5.892,37 7,37 Z"
           id="rect92"
           inkscape:connector-curvature="0" />
        <path
           style="fill:#005dbb"
           d="m 7,46 h 24 c 1.108,0 2,0.892 2,2 0,1.108 -0.892,2 -2,2 H 7 C 5.892,50 5,49.108 5,48 5,46.892 5.892,46 7,46 Z"
           id="rect94"
           inkscape:connector-curvature="0" />
      </g>
    </g>
    <g
       id="g110"
       style="fill-rule:nonzero">
      <path
         d="m 99,215 h 80 v 80 H 99 Z"
         id="path100"
         inkscape:connector-curvature="0"
         style="fill:#ffffff" />
      <path
         d="m 111,227 h 24 v 24 h -24 z"
         id="path102"
         inkscape:connector-curvature="0"
         style="fill:#333333" />
      <path
         d="m 143,227 h 24 v 24 h -24 z"
         id="path104"
         inkscape:connector-curvature="0"
         style="fill:#d3d3d3" />
      <path
         d="m 143,259 h 24 v 24 h -24 z"
         id="path106"
         inkscape:connector-curvature="0"
         style="fill:#23cba5" />
      <path
         d="m 111,259 h 24 v 24 h -24 z"
         id="path108"
         inkscape:connector-curvature="0"
         style="fill:#005dbb" />
    </g>
    <path
       d="m 0,215 h 80 v 80 H 0 Z"
       id="path112"
       inkscape:connector-curvature="0"
       style="fill:#ffffff;fill-rule:nonzero" />
    <g
       aria-label="AÄ"
       transform="translate(0,215)"
       style="font-weight:400;font-size:44px;font-family:National2-Medium, 'National 2';fill:#2a2a2a"
       id="text116">
      <path
         d="m 28.199062,27.199219 -5.886718,15.96289 h 11.794921 z m -2.449218,-4.275391 h 4.919921 L 42.894375,55 H 38.382656 L 35.460781,46.771484 H 21.001797 L 18.079922,55 H 13.50375 Z"
         id="path988"
         inkscape:connector-curvature="0" />
      <path
         d="m 49.40414,22.214844 h 12.847657 v 3.179687 H 49.40414 Z m 8.916016,20.689453 q -4.791016,0 -6.638672,1.095703 -1.847656,1.095703 -1.847656,3.738281 0,2.105469 1.375,3.351563 1.396484,1.224609 3.78125,1.224609 3.287109,0 5.263672,-2.320312 1.998047,-2.341797 1.998047,-6.208985 v -0.880859 z m 7.884766,-1.632813 V 55 h -3.953125 v -3.652344 q -1.353516,2.191406 -3.373047,3.244141 -2.019531,1.03125 -4.941406,1.03125 -3.695313,0 -5.886719,-2.0625 -2.169922,-2.083985 -2.169922,-5.564453 0,-4.060547 2.707031,-6.123047 2.728516,-2.0625 8.121094,-2.0625 h 5.542969 v -0.386719 q 0,-2.728516 -1.804688,-4.210937 -1.783203,-1.503907 -5.027344,-1.503907 -2.0625,0 -4.017578,0.494141 -1.955078,0.494141 -3.759765,1.482422 v -3.652344 q 2.169922,-0.837891 4.210937,-1.246094 2.041016,-0.429687 3.97461,-0.429687 5.220703,0 7.798828,2.707031 2.578125,2.707031 2.578125,8.207031 z"
         id="path990"
         inkscape:connector-curvature="0" />
    </g>
    <g
       id="g132"
       style="fill-rule:nonzero">
      <path
         d="m 198,215 h 80 v 80 h -80 z"
         id="path118"
         inkscape:connector-curvature="0"
         style="fill:#ffffff" />
      <g
         id="g122"
         style="fill:#23cba5">
        <path
           d="m 238.79,231 h 7.737 v 47 h -7.737 z m -10.316,0 h 7.737 v 47 h -7.737 z m -10.316,0 h 7.737 v 47 h -7.737 z m 30.947,0 h 7.737 v 47 h -7.737 z"
           id="path120"
           inkscape:connector-curvature="0" />
      </g>
      <path
         d="m 213,231 h 5.158 v 47 H 213 Z"
         id="path124"
         inkscape:connector-curvature="0"
         style="fill:#078766" />
      <g
         id="g128"
         style="fill:#24a882">
        <path
           d="m 225.895,231 h 2.579 v 47 h -2.58 z m 10.315,0 h 2.58 v 47 h -2.58 z m 10.317,0 h 2.579 v 47 h -2.58 z"
           id="path126"
           inkscape:connector-curvature="0" />
      </g>
      <path
         d="M 256.842,231 H 262 v 47 h -5.158 z"
         id="path130"
         inkscape:connector-curvature="0"
         style="fill:#078766" />
    </g>
    <g
       id="g144">
      <path
         d="m 297,215 h 80 v 80 h -80 z"
         id="path134"
         inkscape:connector-curvature="0"
         style="fill:#ffffff;fill-rule:nonzero" />
      <g
         transform="translate(313,231)"
         id="g142">
        <path
           d="M 0,0 H 48 V 48 H 0 Z"
           id="path136"
           inkscape:connector-curvature="0"
           style="fill:#d3d3d3;fill-rule:nonzero" />
        <path
           d="m 14.357,23.49 13.478,13.667 c 0.523,0.524 1.473,0.502 1.972,-0.044 L 38.443,27.748 48,37.439 V 48 H 0 V 36.788 L 14.357,23.489 Z"
           id="path138"
           inkscape:connector-curvature="0"
           style="fill:#595959" />
        <path
           style="fill:#23cba5;fill-rule:nonzero"
           d="m 25,12 a 5,5 0 0 1 -5,5 5,5 0 0 1 -5,-5 5,5 0 0 1 5,-5 5,5 0 0 1 5,5 z"
           id="circle140"
           inkscape:connector-curvature="0" />
      </g>
    </g>
  </g>
</svg>
