<?xml version="1.0" encoding="UTF-8" standalone="no"?>
<svg
   xmlns:dc="http://purl.org/dc/elements/1.1/"
   xmlns:cc="http://creativecommons.org/ns#"
   xmlns:rdf="http://www.w3.org/1999/02/22-rdf-syntax-ns#"
   xmlns:svg="http://www.w3.org/2000/svg"
   xmlns="http://www.w3.org/2000/svg"
   xmlns:sodipodi="http://sodipodi.sourceforge.net/DTD/sodipodi-0.dtd"
   xmlns:inkscape="http://www.inkscape.org/namespaces/inkscape"
   width="171"
   height="172"
   viewBox="0 0 171 172"
   version="1.1"
   id="svg56"
   sodipodi:docname="icon-home-basics.svg"
   inkscape:version="0.92.4 (5da689c313, 2019-01-14)">
  <metadata
     id="metadata62">
    <rdf:RDF>
      <cc:Work
         rdf:about="">
        <dc:format>image/svg+xml</dc:format>
        <dc:type
           rdf:resource="http://purl.org/dc/dcmitype/StillImage" />
      </cc:Work>
    </rdf:RDF>
  </metadata>
  <defs
     id="defs60" />
  <sodipodi:namedview
     pagecolor="#ffffff"
     bordercolor="#666666"
     borderopacity="1"
     objecttolerance="10"
     gridtolerance="10"
     guidetolerance="10"
     inkscape:pageopacity="0"
     inkscape:pageshadow="2"
     inkscape:window-width="746"
     inkscape:window-height="480"
     id="namedview58"
     showgrid="false"
     inkscape:zoom="1.372093"
     inkscape:cx="85.5"
     inkscape:cy="86"
     inkscape:window-x="70"
     inkscape:window-y="0"
     inkscape:window-maximized="0"
     inkscape:current-layer="svg56" />
  <g
     id="g54"
     style="fill:none;fill-rule:evenodd">
    <g
       id="g12"
       style="fill-rule:nonzero">
      <path
         d="m 91,1 h 80 V 81 H 91 Z"
         id="path2"
         inkscape:connector-curvature="0"
         style="fill:#ffffff" />
      <path
         d="m 103,13 h 24 v 24 h -24 z"
         id="path4"
         inkscape:connector-curvature="0"
         style="fill:#333333" />
      <path
         d="m 135,13 h 24 v 24 h -24 z"
         id="path6"
         inkscape:connector-curvature="0"
         style="fill:#d3d3d3" />
      <path
         d="m 135,45 h 24 v 24 h -24 z"
         id="path8"
         inkscape:connector-curvature="0"
         style="fill:#23cba5" />
      <path
         d="m 103,45 h 24 v 24 h -24 z"
         id="path10"
         inkscape:connector-curvature="0"
         style="fill:#005dbb" />
    </g>
    <path
       d="M 0,0 H 80 V 80 H 0 Z"
       id="path14"
       inkscape:connector-curvature="0"
       style="fill:#ffffff;fill-rule:nonzero" />
    <g
       aria-label="AÄ"
       style="font-weight:400;font-size:44px;font-family:National2-Medium, 'National 2';fill:#2a2a2a"
       id="text18">
      <path
         d="m 28.199062,27.199219 -5.886718,15.96289 h 11.794921 z m -2.449218,-4.275391 h 4.919921 L 42.894375,55 H 38.382656 L 35.460781,46.771484 H 21.001797 L 18.079922,55 H 13.50375 Z"
         id="path869"
         inkscape:connector-curvature="0" />
      <path
         d="m 49.40414,22.214844 h 12.847657 v 3.179687 H 49.40414 Z m 8.916016,20.689453 q -4.791016,0 -6.638672,1.095703 -1.847656,1.095703 -1.847656,3.738281 0,2.105469 1.375,3.351563 1.396484,1.224609 3.78125,1.224609 3.287109,0 5.263672,-2.320312 1.998047,-2.341797 1.998047,-6.208985 v -0.880859 z m 7.884766,-1.632813 V 55 h -3.953125 v -3.652344 q -1.353516,2.191406 -3.373047,3.244141 -2.019531,1.03125 -4.941406,1.03125 -3.695313,0 -5.886719,-2.0625 -2.169922,-2.083985 -2.169922,-5.564453 0,-4.060547 2.707031,-6.123047 2.728516,-2.0625 8.121094,-2.0625 h 5.542969 v -0.386719 q 0,-2.728516 -1.804688,-4.210937 -1.783203,-1.503907 -5.027344,-1.503907 -2.0625,0 -4.017578,0.494141 -1.955078,0.494141 -3.759765,1.482422 v -3.652344 q 2.169922,-0.837891 4.210937,-1.246094 2.041016,-0.429687 3.97461,-0.429687 5.220703,0 7.798828,2.707031 2.578125,2.707031 2.578125,8.207031 z"
         id="path871"
         inkscape:connector-curvature="0" />
    </g>
    <g
       id="g34"
       style="fill-rule:nonzero">
      <path
         d="m 0,91 h 80 v 80 H 0 Z"
         id="path20"
         inkscape:connector-curvature="0"
         style="fill:#ffffff" />
      <g
         id="g24"
         style="fill:#23cba5">
        <path
           d="m 40.79,107 h 7.737 v 47 H 40.79 Z m -10.316,0 h 7.737 v 47 h -7.737 z m -10.316,0 h 7.737 v 47 h -7.737 z m 30.947,0 h 7.737 v 47 h -7.737 z"
           id="path22"
           inkscape:connector-curvature="0" />
      </g>
      <path
         d="m 15,107 h 5.158 v 47 H 15 Z"
         id="path26"
         inkscape:connector-curvature="0"
         style="fill:#078766" />
      <g
         id="g30"
         style="fill:#24a882">
        <path
           d="m 27.895,107 h 2.579 v 47 h -2.58 z m 10.315,0 h 2.58 v 47 h -2.58 z m 10.317,0 h 2.579 v 47 h -2.58 z"
           id="path28"
           inkscape:connector-curvature="0" />
      </g>
      <path
         d="M 58.842,107 H 64 v 47 h -5.158 z"
         id="path32"
         inkscape:connector-curvature="0"
         style="fill:#078766" />
    </g>
    <g
       id="g52">
      <path
         d="m 91,92 h 80 v 80 H 91 Z"
         id="path36"
         inkscape:connector-curvature="0"
         style="fill:#ffffff;fill-rule:nonzero" />
      <g
         transform="translate(105,107)"
         id="g44">
        <path
           d="M 0,0 H 38 V 37 H 0 Z"
           id="path38"
           inkscape:connector-curvature="0"
           style="fill:#d3d3d3;fill-rule:nonzero" />
        <path
           d="m 11.366,18.625 10.67,10.595 c 0.414,0.406 1.166,0.39 1.56,-0.034 L 30.434,21.926 38,29.44 v 8.186 H 0 V 28.935 L 11.366,18.626 Z"
           id="path40"
           inkscape:connector-curvature="0"
           style="fill:#595959" />
        <path
           style="fill:#23cba5;fill-rule:nonzero"
           d="m 27,13 a 5,5 0 0 1 -5,5 5,5 0 0 1 -5,-5 5,5 0 0 1 5,-5 5,5 0 0 1 5,5 z"
           id="circle42"
           inkscape:connector-curvature="0" />
      </g>
      <g
         transform="translate(125,129)"
         id="g50"
         style="fill-rule:nonzero">
        <path
           style="fill:#333333"
           d="M 30,15 A 15,15 0 0 1 15,30 15,15 0 0 1 0,15 15,15 0 0 1 15,0 15,15 0 0 1 30,15 Z"
           id="circle46"
           inkscape:connector-curvature="0" />
        <path
           d="M 24,15 12,21 V 9 Z"
           id="path48"
           inkscape:connector-curvature="0"
           style="fill:#ffffff" />
      </g>
    </g>
  </g>
</svg>
