<svg xmlns="http://www.w3.org/2000/svg" width="100" height="30">
  <path d="M0 27.5s8.8-1 17-1c8.5 0 17.4 1 17.4 1v1.8s-9-1-17.3-1-17.1 1-17.1 1v-1.8zm15.7-4h-3.5L6 11a63.2 63.2 0 0 1-2.9-6.4H3c.2 2 .3 4.4.3 6.6l.1 12.4H2.1c-1.5 0-2-1.5-2-3.1V0h3.8l6.5 13c1 2 2.2 5 2.4 5.6h.2c-.1-.7-.4-4.4-.4-7V0h3.1v23.6zm18.7-2.4l-.9 2.7h-14v-2.5l9.5-15c.5-.9 1.2-1.8 1.7-2.4H19.9l.8-2.7h13.5V4l-9.4 15-1.5 2.2h11.1zm21.7.6c-2 1.2-4.5 2-7 2-3.2 0-5.7-1.1-7.5-3.3-1.9-2.1-2.7-5-2.7-8.8 0-3.2 1.4-7 4-9.2 1.8-1.4 3.7-2 6-2 2.5 0 4.8.7 6.7 2.3l-1.6 2A8 8 0 0 0 49 3c-2.3 0-4 1-5.1 3-.8 1.5-1.3 3-1.3 5.8 0 3.2.6 5.7 1.7 7.1 1 1.3 3 2.1 5 2.1a7 7 0 0 0 3.5-.9v-6.7h-4.3l-.6-2.7h8.2v11zm9.7-.4c2.4 0 3.9-1.8 3.9-6.3 0-5.3-1.5-6.9-4-6.9-2.7 0-3.9 2-3.9 6.3 0 5.2 1.4 7 4 7zm-.1-15.6c5 0 7.5 4 7.5 9.2 0 5.4-2.9 8.9-7.4 8.9-4.6 0-7.5-3.5-7.5-9.1 0-5.5 2.9-9 7.4-9zm23.2.5l-6.2 17.2h-3l-6-17.2 3.2-.5 3.4 10.4a50.4 50.4 0 0 1 1 3.7l1-3.8 3.3-9.8H89zm11 0l-1 2.2h-3.3v10.3c0 2.1.5 2.8 2.2 2.8.6 0 1-.1 1.6-.4l.4 2a6.8 6.8 0 0 1-3.1.7c-1.2 0-2.4-.4-3-.9-.7-.6-1.2-1-1.2-3.5v-11h-2V6.2h2c0-1.4 0-3.1.2-4.4L96 1c-.2 1.3-.4 3.4-.4 5.2h4.2z"/>
</svg>
