<svg xmlns="http://www.w3.org/2000/svg" width="174" height="195" viewBox="0 0 174 195">
    <g fill="none" fill-rule="nonzero">
        <path fill="#F4F4F4" d="M0 15h174v180H0z"/>
        <path fill="#595959" d="M12 0h150c6.627 0 12 5.373 12 12v3H0v-3C0 5.373 5.373 0 12 0z"/>
        <path fill="#FFF" d="M26.8 40h94.4a4.8 4.8 0 0 1 4.8 4.8v121.4a4.8 4.8 0 0 1-4.8 4.8H26.8a4.8 4.8 0 0 1-4.8-4.8V44.8a4.8 4.8 0 0 1 4.8-4.8z"/>
        <g transform="translate(38 50)">
            <ellipse cx="5.984" cy="5.978" fill="#23CBA5" rx="5.984" ry="5.978"/>
            <ellipse cx="5.984" cy="27.5" fill="#D3D3D3" rx="5.984" ry="5.978"/>
            <rect width="40.689" height="4.783" x="19.148" y="3.587" fill="#333" rx="2.391"/>
            <rect width="33.508" height="4.783" x="19.148" y="25.109" fill="#333" rx="2.391"/>
            <g>
                <g transform="translate(0 47.826)">
                    <ellipse cx="5.984" cy="5.978" fill="#23CBA5" rx="5.984" ry="5.978"/>
                    <ellipse cx="5.984" cy="27.5" fill="#D3D3D3" rx="5.984" ry="5.978"/>
                    <rect width="53.852" height="4.783" x="19.148" y="3.587" fill="#333" rx="2.391"/>
                    <rect width="41.885" height="4.783" x="19.148" y="25.109" fill="#333" rx="2.391"/>
                </g>
            </g>
            <rect width="37.098" height="14.348" y="95.652" fill="#24A882" rx="2.4"/>
        </g>
        <path fill="#30BB0D" d="M141.737 106.425c-.78-.703-2.039-1.99-2.878-2.809-.84-.76-1.379-.117-2.398.936-1.14 1.112 0 1.697 1.619 3.277l2.938 2.867c1.08.936 1.979-.468 3.417-1.814l5.877-5.792c1.858-1.756 2.278-1.756.779-3.16-1.32-1.346-1.26-1.346-3.358.76-.96.878-5.696 5.559-5.996 5.735z"/>
    </g>
</svg>
